<?xml version="1.0" encoding="utf-8"?>
<!-- Generator: Adobe Illustrator 19.2.1, SVG Export Plug-In . SVG Version: 6.00 Build 0)  -->
<svg version="1.1" id="layer" xmlns="http://www.w3.org/2000/svg" xmlns:xlink="http://www.w3.org/1999/xlink" x="0px" y="0px"
	 viewBox="0 0 652 652" style="enable-background:new 0 0 652 652;" xml:space="preserve">
<path d="M108.5,319.6c9.9,0,17.9-8.2,17.9-18.2c0-10.4-7.7-18.2-17.8-18.2H27c19.1,34.8,38.6,36.4,68,36.4H108.5z M108.5,331.1H51
	c14.3,23.9,28.2,36.4,52.2,36.4h5c9.9,0,18.3-8.3,18.3-18.2C126.4,338.9,118.8,331.1,108.5,331.1z M247.7,324.5
	c2.8-1.9,4.7-5.2,4.7-9.2c0-6.2-4.7-11-13.7-11h-24.3h-4h-2v2.1v2.6V342v2.6v2.1h2h4h25.5c8.6,0,13.8-5.2,13.8-12
	C253.7,329.2,250.5,326,247.7,324.5L247.7,324.5z M215.9,311.3h22.6c3.7,0,6,1.9,6,5.1c0,3-1.9,5.4-6,5.4h-22.6V311.3z M240,339.6
	h-24.1v-11h24.3c3.2,0,5.4,2.3,5.4,5.5C245.7,337,243.8,339.6,240,339.6z M343.8,339.6h-30.6v-33.2c0-1.3-0.7-2.1-2.1-2.1h-3.5
	c-1.2,0-2,0.8-2,2.1v35.5v2.6v2.1h2h4h32.1c1.3,0,2.1-0.8,2.1-2.1v-2.7C346,340.5,345.2,339.6,343.8,339.6L343.8,339.6z
	 M515.3,304.4h-18.2h-4h-2v2v2.6v32.9v2.6v2.1h2.1h4h18.3c12.8,0,22.3-7.3,22.3-21.4C537.6,313,529.3,304.4,515.3,304.4L515.3,304.4
	z M515.2,339.6h-16.5v-28.3h16.5c9.8,0,14.5,6.7,14.5,13.9C529.7,333,525.2,339.6,515.2,339.6z M625,311.3c1.3,0,2-0.8,2-2.1v-2.7
	c0-1.3-0.7-2.1-2-2.1h-33.1h-4h-2v2.1v2.6v32.9v2.6v2.1h2h4H625c1.3,0,2-0.8,2-2.1v-2.7c0-1.3-0.7-2.1-2-2.1h-31.5v-11.1H616
	c1.3,0,2.1-0.8,2.1-2.1v-2.7c0-1.3-0.8-2.1-2.1-2.1h-22.6v-10.4H625V311.3z M441,341.5l-18.3-35.7c-0.5-1-1.3-1.4-2.6-1.4h-4.8
	c-1.2,0-2,0.5-2.5,1.4l-19.4,37.9l-1.5,2.9h3h2.6h1.2c1.3,0,2.1-0.4,2.6-1.5l4.3-8.6h24.3l4.3,8.6c0.6,1.1,1.3,1.5,2.6,1.5h1.3h2.6
	h3.1L441,341.5z M409,329.5l8.7-17.5l8.6,17.5H409z"/>
</svg>
